<svg width="40" height="38" viewBox="0 0 40 38" fill="none" xmlns="http://www.w3.org/2000/svg">
    <path d="M3.125 0C1.41149 0 0 1.41149 0 3.125V5.20833C0 6.92184 1.41149 8.33333 3.125 8.33333H36.4583C38.1718 8.33333 39.5833 6.92184 39.5833 5.20833V3.125C39.5833 1.41149 38.1718 0 36.4583 0H3.125ZM3.125 2.08333H36.4583C37.0469 2.08333 37.5 2.53643 37.5 3.125V5.20833C37.5 5.79691 37.0469 6.25 36.4583 6.25H3.125C2.53643 6.25 2.08333 5.79691 2.08333 5.20833V3.125C2.08333 2.53643 2.53643 2.08333 3.125 2.08333ZM3.125 14.5833C1.41149 14.5833 0 15.9948 0 17.7083V19.7917C0 21.5052 1.41149 22.9167 3.125 22.9167H36.4583C38.1718 22.9167 39.5833 21.5052 39.5833 19.7917V17.7083C39.5833 15.9948 38.1718 14.5833 36.4583 14.5833H3.125ZM3.125 16.6667H36.4583C37.0469 16.6667 37.5 17.1198 37.5 17.7083V19.7917C37.5 20.3802 37.0469 20.8333 36.4583 20.8333H3.125C2.53643 20.8333 2.08333 20.3802 2.08333 19.7917V17.7083C2.08333 17.1198 2.53643 16.6667 3.125 16.6667ZM3.125 29.1667C1.41149 29.1667 0 30.5782 0 32.2917V34.375C0 36.0885 1.41149 37.5 3.125 37.5H36.4583C38.1718 37.5 39.5833 36.0885 39.5833 34.375V32.2917C39.5833 30.5782 38.1718 29.1667 36.4583 29.1667H3.125ZM3.125 31.25H36.4583C37.0469 31.25 37.5 31.7031 37.5 32.2917V34.375C37.5 34.9636 37.0469 35.4167 36.4583 35.4167H3.125C2.53643 35.4167 2.08333 34.9636 2.08333 34.375V32.2917C2.08333 31.7031 2.53643 31.25 3.125 31.25Z" fill="white"/>
</svg>
