<svg width="32" height="38" viewBox="0 0 32 38" fill="none" xmlns="http://www.w3.org/2000/svg">
    <circle cx="16" cy="22" r="15.5" fill="white" stroke="black"/>
    <path d="M15.9062 26.3125C16.25 26.25 16.4219 26.0781 16.4219 25.7969C16.4219 25.5052 16.3281 25.1823 16.1406 24.8281C15.9635 24.4635 15.6979 24.1198 15.3438 23.7969C14.4167 22.9635 13.1615 22.5469 11.5781 22.5469C10.7969 22.5469 10.0677 22.6771 9.39062 22.9375C8.67188 22.5729 8.09896 21.9948 7.67188 21.2031C7.24479 20.4115 7.03125 19.5573 7.03125 18.6406C7.03125 16.2448 8.03125 14.3958 10.0312 13.0938C11.75 11.9792 13.8698 11.4219 16.3906 11.4219C18.2656 11.4219 19.8438 11.625 21.125 12.0312C22.4062 12.4271 23.4531 12.9375 24.2656 13.5625C24.5052 14.25 24.625 14.9635 24.625 15.7031C24.625 16.4427 24.526 17.1146 24.3281 17.7188C24.1302 18.3229 23.8438 18.8073 23.4688 19.1719C23.1146 18.9115 22.474 18.6458 21.5469 18.375C20.6198 18.1042 19.776 17.9688 19.0156 17.9688C18.2552 17.9688 17.7448 18.0156 17.4844 18.1094C17.2344 18.2031 17.1094 18.349 17.1094 18.5469C17.1094 18.6406 17.125 18.7292 17.1562 18.8125C17.5208 18.7188 17.9896 18.6719 18.5625 18.6719C20.5938 18.6719 22.25 19.151 23.5312 20.1094C25.0417 21.2552 25.7969 22.974 25.7969 25.2656C25.7969 27.2865 24.9792 28.9635 23.3438 30.2969C21.5729 31.724 19.1927 32.4375 16.2031 32.4375C14.5573 32.4375 13.1302 32.3125 11.9219 32.0625C10.7135 31.8229 9.53646 31.3958 8.39062 30.7812C7.60938 29.6458 7.21875 28.4948 7.21875 27.3281C7.21875 26.151 7.61979 25.1771 8.42188 24.4062C9.22396 23.6354 10.2083 23.25 11.375 23.25C12.5521 23.25 13.5104 23.4896 14.25 23.9688C15 24.4479 15.5521 25.2292 15.9062 26.3125Z" fill="#8A11A8"/>
</svg>
