<svg width="126" height="59" viewBox="0 0 126 59" fill="none" xmlns="http://www.w3.org/2000/svg">
    <path d="M11.1328 32.8906C11.5625 32.8125 11.7773 32.5977 11.7773 32.2461C11.7773 31.8815 11.6602 31.4779 11.4258 31.0352C11.2044 30.5794 10.8724 30.1497 10.4297 29.7461C9.27083 28.7044 7.70182 28.1836 5.72266 28.1836C4.74609 28.1836 3.83464 28.3464 2.98828 28.6719C2.08984 28.2161 1.3737 27.4935 0.839844 26.5039C0.30599 25.5143 0.0390625 24.4466 0.0390625 23.3008C0.0390625 20.306 1.28906 17.9948 3.78906 16.3672C5.9375 14.974 8.58724 14.2773 11.7383 14.2773C14.082 14.2773 16.0547 14.5312 17.6562 15.0391C19.2578 15.5339 20.5664 16.1719 21.582 16.9531C21.8815 17.8125 22.0312 18.7044 22.0312 19.6289C22.0312 20.5534 21.9076 21.3932 21.6602 22.1484C21.4128 22.9036 21.0547 23.5091 20.5859 23.9648C20.1432 23.6393 19.3424 23.3073 18.1836 22.9688C17.0247 22.6302 15.9701 22.4609 15.0195 22.4609C14.069 22.4609 13.431 22.5195 13.1055 22.6367C12.793 22.7539 12.6367 22.9362 12.6367 23.1836C12.6367 23.3008 12.6562 23.4115 12.6953 23.5156C13.151 23.3984 13.737 23.3398 14.4531 23.3398C16.9922 23.3398 19.0625 23.9388 20.6641 25.1367C22.5521 26.569 23.4961 28.7174 23.4961 31.582C23.4961 34.1081 22.474 36.2044 20.4297 37.8711C18.2161 39.6549 15.2409 40.5469 11.5039 40.5469C9.44661 40.5469 7.66276 40.3906 6.15234 40.0781C4.64193 39.7786 3.17057 39.2448 1.73828 38.4766C0.761719 37.0573 0.273438 35.6185 0.273438 34.1602C0.273438 32.6888 0.77474 31.4714 1.77734 30.5078C2.77995 29.5443 4.01042 29.0625 5.46875 29.0625C6.9401 29.0625 8.13802 29.362 9.0625 29.9609C10 30.5599 10.6901 31.5365 11.1328 32.8906ZM34.4141 22.4219V30.1562C34.4141 32.0964 34.8828 33.3594 35.8203 33.9453C35.8333 34.0104 35.8398 34.1341 35.8398 34.3164V34.668C35.8398 36.582 35.319 38.0208 34.2773 38.9844C33.3138 39.8958 32.0247 40.3516 30.4102 40.3516C28.8086 40.3516 27.487 39.8958 26.4453 38.9844C25.1302 37.8255 24.4727 36.1328 24.4727 33.9062V21.2109C24.707 21.0417 24.9609 20.9049 25.2344 20.8008C25.5078 20.6966 25.7943 20.5664 26.0938 20.4102C25.5339 20.1237 25.026 19.6289 24.5703 18.9258C24.1146 18.2096 23.8867 17.3763 23.8867 16.4258C23.8867 14.7852 24.4271 13.444 25.5078 12.4023C26.5885 11.3607 27.9102 10.8398 29.4727 10.8398C31.0482 10.8398 32.3633 11.3737 33.418 12.4414C34.4857 13.4961 35.0195 14.8242 35.0195 16.4258C35.0195 17.7148 34.6159 18.8477 33.8086 19.8242C33.0013 20.7878 32.0182 21.3932 30.8594 21.6406C30.8594 22.1354 31.0482 22.3828 31.4258 22.3828C32.0898 22.3828 32.7669 22.1224 33.457 21.6016C33.9779 22.0052 34.2969 22.2786 34.4141 22.4219ZM46.25 32.0117C46.3802 32.1419 46.5365 32.207 46.7188 32.207C47.0052 32.207 47.2005 32.0052 47.3047 31.6016C47.4089 31.1849 47.4609 30.3516 47.4609 29.1016V27.1094C47.4609 26.7578 47.4154 26.5104 47.3242 26.3672C47.2331 26.224 47.0833 26.1523 46.875 26.1523C46.6667 26.1523 46.5169 26.1979 46.4258 26.2891V28.9062C46.4258 29.6875 46.3672 30.7227 46.25 32.0117ZM47.0312 16.0156V17.7539C45.9375 17.819 44.9349 17.9883 44.0234 18.2617C43.112 18.5221 42.6562 18.8281 42.6562 19.1797C42.6562 19.388 42.7604 19.5573 42.9688 19.6875C44.401 18.9844 45.918 18.6328 47.5195 18.6328C50.3841 18.6328 52.7279 19.6224 54.5508 21.6016C56.3867 23.5677 57.3047 26.1328 57.3047 29.2969C57.3047 33.125 56.1979 36.0091 53.9844 37.9492C51.9661 39.7201 49.2188 40.6055 45.7422 40.6055C42.2786 40.6055 39.7266 39.9349 38.0859 38.5938C37.1875 37.8516 36.7383 36.888 36.7383 35.7031V13.418C37.3633 13.0534 38.112 12.7539 38.9844 12.5195C39.8698 12.2852 40.7617 12.168 41.6602 12.168C43.1576 12.168 44.3945 12.4609 45.3711 13.0469C46.4779 13.737 47.0312 14.7266 47.0312 16.0156ZM68.5938 29.1211V32.5391C68.6849 32.6302 68.8346 32.6758 69.043 32.6758C69.2513 32.6758 69.401 32.6042 69.4922 32.4609C69.5833 32.3177 69.6289 32.0703 69.6289 31.7188V28.9258C69.6289 27.6758 69.5768 26.849 69.4727 26.4453C69.3685 26.0286 69.1732 25.8203 68.8867 25.8203C68.7044 25.8203 68.5482 25.8854 68.418 26.0156C68.5352 27.3047 68.5938 28.3398 68.5938 29.1211ZM61.2891 37.7734C59.1536 35.7161 58.0859 32.9297 58.0859 29.4141C58.0859 25.8854 59.0885 23.1055 61.0938 21.0742C63.112 19.0299 65.7552 18.0078 69.0234 18.0078C72.2917 18.0078 74.9349 19.069 76.9531 21.1914C78.9583 23.3138 79.9609 26.0807 79.9609 29.4922C79.9609 32.8906 78.9909 35.5924 77.0508 37.5977C75.1237 39.6029 72.5 40.6055 69.1797 40.6055C65.8594 40.6055 63.2292 39.6615 61.2891 37.7734ZM91.25 29.1211V32.5391C91.3411 32.6302 91.4909 32.6758 91.6992 32.6758C91.9076 32.6758 92.0573 32.6042 92.1484 32.4609C92.2396 32.3177 92.2852 32.0703 92.2852 31.7188V28.9258C92.2852 27.6758 92.2331 26.849 92.1289 26.4453C92.0247 26.0286 91.8294 25.8203 91.543 25.8203C91.3607 25.8203 91.2044 25.8854 91.0742 26.0156C91.1914 27.3047 91.25 28.3398 91.25 29.1211ZM83.9453 37.7734C81.8099 35.7161 80.7422 32.9297 80.7422 29.4141C80.7422 25.8854 81.7448 23.1055 83.75 21.0742C85.7682 19.0299 88.4115 18.0078 91.6797 18.0078C94.9479 18.0078 97.5911 19.069 99.6094 21.1914C101.615 23.3138 102.617 26.0807 102.617 29.4922C102.617 32.8906 101.647 35.5924 99.707 37.5977C97.7799 39.6029 95.1562 40.6055 91.8359 40.6055C88.5156 40.6055 85.8854 39.6615 83.9453 37.7734ZM124.57 30.332C124.57 31.2695 124.674 32.0247 124.883 32.5977C125.091 33.1706 125.456 33.6198 125.977 33.9453C125.99 34.0104 125.996 34.1341 125.996 34.3164V34.668C125.996 36.4648 125.475 37.8646 124.434 38.8672C123.405 39.8568 122.07 40.3516 120.43 40.3516C118.802 40.3516 117.48 39.8893 116.465 38.9648C115.28 37.9102 114.688 36.3086 114.688 34.1602C114.688 33.2487 114.727 32.4479 114.805 31.7578C114.896 31.0547 114.954 30.5534 114.98 30.2539C115.02 29.9544 115.059 29.6745 115.098 29.4141C115.137 29.1536 115.156 28.7695 115.156 28.2617C115.156 27.7539 115.085 27.3893 114.941 27.168C114.811 26.9466 114.622 26.8359 114.375 26.8359C114.141 26.8359 113.932 26.888 113.75 26.9922L114.004 30.1758C113.77 31.4909 113.652 32.8841 113.652 34.3555C113.652 35.8268 113.984 37.168 114.648 38.3789C113.372 39.694 111.582 40.3516 109.277 40.3516C107.962 40.3516 106.823 40.0065 105.859 39.3164C104.74 38.5352 104.18 37.5 104.18 36.2109V26.7578C103.411 25.6771 103.027 24.349 103.027 22.7734C103.027 21.1849 103.411 19.8112 104.18 18.6523H107.656C108.581 18.6523 109.368 18.9974 110.02 19.6875C109.447 20.2214 109.16 20.6641 109.16 21.0156C109.16 21.4193 109.388 21.6211 109.844 21.6211C110.417 20.6315 111.289 19.8112 112.461 19.1602C113.646 18.5091 114.987 18.1836 116.484 18.1836C118.737 18.1836 120.566 18.737 121.973 19.8438C123.743 21.237 124.629 23.3984 124.629 26.3281L124.57 30.332Z" fill="#8A11A8"/>
    <path d="M26.4531 53.1562C26.625 53.125 26.7109 53.0391 26.7109 52.8984C26.7109 52.7526 26.6641 52.5911 26.5703 52.4141C26.4818 52.2318 26.349 52.0599 26.1719 51.8984C25.7083 51.4818 25.0807 51.2734 24.2891 51.2734C23.8984 51.2734 23.5339 51.3385 23.1953 51.4688C22.8359 51.2865 22.5495 50.9974 22.3359 50.6016C22.1224 50.2057 22.0156 49.7786 22.0156 49.3203C22.0156 48.1224 22.5156 47.1979 23.5156 46.5469C24.375 45.9896 25.4349 45.7109 26.6953 45.7109C27.6328 45.7109 28.4219 45.8125 29.0625 46.0156C29.7031 46.2135 30.2266 46.4688 30.6328 46.7812C30.7526 47.125 30.8125 47.4818 30.8125 47.8516C30.8125 48.2214 30.763 48.5573 30.6641 48.8594C30.5651 49.1615 30.4219 49.4036 30.2344 49.5859C30.0573 49.4557 29.737 49.3229 29.2734 49.1875C28.8099 49.0521 28.388 48.9844 28.0078 48.9844C27.6276 48.9844 27.3724 49.0078 27.2422 49.0547C27.1172 49.1016 27.0547 49.1745 27.0547 49.2734C27.0547 49.3203 27.0625 49.3646 27.0781 49.4062C27.2604 49.3594 27.4948 49.3359 27.7812 49.3359C28.7969 49.3359 29.625 49.5755 30.2656 50.0547C31.0208 50.6276 31.3984 51.487 31.3984 52.6328C31.3984 53.6432 30.9896 54.4818 30.1719 55.1484C29.2865 55.862 28.0964 56.2188 26.6016 56.2188C25.7786 56.2188 25.0651 56.1562 24.4609 56.0312C23.8568 55.9115 23.2682 55.6979 22.6953 55.3906C22.3047 54.8229 22.1094 54.2474 22.1094 53.6641C22.1094 53.0755 22.3099 52.5885 22.7109 52.2031C23.112 51.8177 23.6042 51.625 24.1875 51.625C24.776 51.625 25.2552 51.7448 25.625 51.9844C26 52.224 26.276 52.6146 26.4531 53.1562ZM35.6719 53.0625L35.2969 53.2266C35.2969 53.5755 35.3646 53.9479 35.5 54.3438C35.6146 54.7188 35.7734 55.0521 35.9766 55.3438C35.4609 55.875 34.7448 56.1406 33.8281 56.1406C33.3021 56.1406 32.8464 56.0026 32.4609 55.7266C32.013 55.4141 31.7891 55 31.7891 54.4844V45.3672C32.0391 45.2214 32.3385 45.1016 32.6875 45.0078C33.0417 44.9141 33.3984 44.8672 33.7578 44.8672C34.3568 44.8672 34.8516 44.9844 35.2422 45.2188C35.6849 45.4948 35.9062 45.8906 35.9062 46.4062V47.2344C35.9062 47.9271 35.7839 48.6042 35.5391 49.2656C35.4922 49.3333 35.4089 49.4323 35.2891 49.5625C35.1693 49.6875 35.0729 49.8021 35 49.9062C34.9323 50.0104 34.8984 50.1016 34.8984 50.1797C34.8984 50.2526 34.9609 50.3203 35.0859 50.3828C35.4922 50.0026 35.8099 49.5885 36.0391 49.1406C36.2734 48.6927 36.487 48.099 36.6797 47.3594C36.7474 47.349 36.8255 47.3359 36.9141 47.3203C37.0026 47.3047 37.1484 47.2812 37.3516 47.25C37.5599 47.2135 37.7057 47.1953 37.7891 47.1953C38.5911 47.1953 39.2161 47.3802 39.6641 47.75C40.112 48.1146 40.3359 48.6172 40.3359 49.2578C40.3359 49.8984 40.1328 50.4479 39.7266 50.9062C39.3516 51.3177 38.8646 51.6276 38.2656 51.8359C38.7448 52.1172 39.349 52.3177 40.0781 52.4375C40.3594 52.9479 40.5 53.4922 40.5 54.0703C40.5 54.6432 40.3177 55.1224 39.9531 55.5078C39.5469 55.9297 38.9844 56.1406 38.2656 56.1406C37.5521 56.1406 36.9635 55.8672 36.5 55.3203C36.0417 54.7682 35.7656 54.0156 35.6719 53.0625ZM48.7422 52.1328C48.7422 52.5078 48.7839 52.8099 48.8672 53.0391C48.9505 53.2682 49.0964 53.4479 49.3047 53.5781C49.3099 53.6042 49.3125 53.6536 49.3125 53.7266V53.8672C49.3125 54.6068 49.0885 55.1823 48.6406 55.5938C48.2448 55.9583 47.7552 56.1406 47.1719 56.1406C46.776 56.1406 46.4141 56.0469 46.0859 55.8594C45.7578 55.6719 45.5234 55.401 45.3828 55.0469C45.2057 55.0469 45.1172 55.1328 45.1172 55.3047C45.1172 55.4505 45.2083 55.6146 45.3906 55.7969C45.0521 56.026 44.5417 56.1406 43.8594 56.1406C42.8958 56.1406 42.125 55.8802 41.5469 55.3594C40.974 54.8333 40.6875 54.1016 40.6875 53.1641C40.6875 52.2214 40.9922 51.4922 41.6016 50.9766C42.1589 50.513 42.8802 50.2812 43.7656 50.2812C44.0677 50.2812 44.3594 50.3021 44.6406 50.3438C44.8281 50.3802 44.9297 50.401 44.9453 50.4062C44.9609 50.3542 44.9688 50.3099 44.9688 50.2734C44.9688 50.138 44.8542 50.0469 44.625 50C44.3958 49.9531 44.0964 49.9297 43.7266 49.9297C42.9401 49.9297 42.2682 50.0885 41.7109 50.4062C41.4557 49.974 41.3281 49.4271 41.3281 48.7656C41.3281 48.3906 41.375 48.112 41.4688 47.9297C41.8438 47.7578 42.3203 47.6068 42.8984 47.4766C43.4766 47.3411 44.0859 47.2734 44.7266 47.2734C46.0495 47.2734 47.0495 47.5625 47.7266 48.1406C48.4036 48.7188 48.7422 49.5391 48.7422 50.6016V52.1328ZM44.6875 52.5156C44.4688 52.5156 44.3594 52.6146 44.3594 52.8125C44.3594 53 44.487 53.0938 44.7422 53.0938C44.9193 53.0938 45.0495 53.0521 45.1328 52.9688C45.2161 52.8802 45.2578 52.7292 45.2578 52.5156C45.2578 52.5156 45.0677 52.5156 44.6875 52.5156ZM50.1094 51.0625H50.5938C50.8542 51.0625 50.9844 50.9766 50.9844 50.8047C50.9844 50.7839 50.9792 50.7526 50.9688 50.7109H49.2188C49.1042 50.3464 49.0469 49.9401 49.0469 49.4922C49.0469 49.0391 49.0807 48.6719 49.1484 48.3906C49.4453 48.2031 49.8542 47.9167 50.375 47.5312C50.5208 47.1771 50.7109 46.6146 50.9453 45.8438C50.9766 45.7396 51.013 45.638 51.0547 45.5391C51.4609 45.4349 51.9245 45.3828 52.4453 45.3828C52.9661 45.3828 53.4792 45.4375 53.9844 45.5469V47.4609H55.3359C55.638 47.9193 55.7891 48.4583 55.7891 49.0781C55.7891 49.3594 55.75 49.6484 55.6719 49.9453C55.5938 50.2422 55.4818 50.4948 55.3359 50.7031H54.2188V51.8828C54.2188 52.5495 54.4974 52.8828 55.0547 52.8828H55.3906C55.5 53.2786 55.5547 53.6224 55.5547 53.9141C55.5547 54.6328 55.3281 55.1849 54.875 55.5703C54.4271 55.9505 53.7734 56.1406 52.9141 56.1406C52.0599 56.1406 51.3776 55.9036 50.8672 55.4297C50.362 54.9505 50.1094 54.2474 50.1094 53.3203V51.0625ZM60.5078 56.2422C59.0651 56.2422 57.9271 55.8411 57.0938 55.0391C56.2396 54.2318 55.8125 53.1276 55.8125 51.7266C55.8125 50.3203 56.2526 49.2057 57.1328 48.3828C57.9453 47.6172 58.974 47.2344 60.2188 47.2344C61.4635 47.2344 62.4609 47.5781 63.2109 48.2656C63.9661 48.9479 64.3438 49.7891 64.3438 50.7891C64.3438 51.6797 64.0339 52.3516 63.4141 52.8047C62.8411 53.2318 62.0599 53.4453 61.0703 53.4453C60.3307 53.4453 59.7057 53.2917 59.1953 52.9844C59.1536 53.0156 59.1328 53.0729 59.1328 53.1562C59.1328 53.3125 59.3385 53.4557 59.75 53.5859C60.1615 53.7266 60.6276 53.7969 61.1484 53.7969C61.6745 53.7969 62.151 53.7318 62.5781 53.6016C63.0104 53.4661 63.3568 53.3073 63.6172 53.125C63.7422 53.2344 63.8411 53.4375 63.9141 53.7344C63.9922 54.026 64.0312 54.2943 64.0312 54.5391C64.0312 54.7786 64.0078 54.9922 63.9609 55.1797C63.5547 55.5234 63.138 55.7682 62.7109 55.9141C62.1068 56.1328 61.3724 56.2422 60.5078 56.2422ZM60.4062 50.9531C60.6667 50.9531 60.7969 50.8542 60.7969 50.6562C60.7969 50.4688 60.6589 50.375 60.3828 50.375C60.1068 50.375 59.9479 50.5234 59.9062 50.8203C60.0521 50.9089 60.2188 50.9531 60.4062 50.9531ZM72.7031 53.1562C72.875 53.125 72.9609 53.0391 72.9609 52.8984C72.9609 52.7526 72.9141 52.5911 72.8203 52.4141C72.7318 52.2318 72.599 52.0599 72.4219 51.8984C71.9583 51.4818 71.3307 51.2734 70.5391 51.2734C70.1484 51.2734 69.7839 51.3385 69.4453 51.4688C69.0859 51.2865 68.7995 50.9974 68.5859 50.6016C68.3724 50.2057 68.2656 49.7786 68.2656 49.3203C68.2656 48.1224 68.7656 47.1979 69.7656 46.5469C70.625 45.9896 71.6849 45.7109 72.9453 45.7109C73.8828 45.7109 74.6719 45.8125 75.3125 46.0156C75.9531 46.2135 76.4766 46.4688 76.8828 46.7812C77.0026 47.125 77.0625 47.4818 77.0625 47.8516C77.0625 48.2214 77.013 48.5573 76.9141 48.8594C76.8151 49.1615 76.6719 49.4036 76.4844 49.5859C76.3073 49.4557 75.987 49.3229 75.5234 49.1875C75.0599 49.0521 74.638 48.9844 74.2578 48.9844C73.8776 48.9844 73.6224 49.0078 73.4922 49.0547C73.3672 49.1016 73.3047 49.1745 73.3047 49.2734C73.3047 49.3203 73.3125 49.3646 73.3281 49.4062C73.5104 49.3594 73.7448 49.3359 74.0312 49.3359C75.0469 49.3359 75.875 49.5755 76.5156 50.0547C77.2708 50.6276 77.6484 51.487 77.6484 52.6328C77.6484 53.6432 77.2396 54.4818 76.4219 55.1484C75.5365 55.862 74.3464 56.2188 72.8516 56.2188C72.0286 56.2188 71.3151 56.1562 70.7109 56.0312C70.1068 55.9115 69.5182 55.6979 68.9453 55.3906C68.5547 54.8229 68.3594 54.2474 68.3594 53.6641C68.3594 53.0755 68.5599 52.5885 68.9609 52.2031C69.362 51.8177 69.8542 51.625 70.4375 51.625C71.026 51.625 71.5052 51.7448 71.875 51.9844C72.25 52.224 72.526 52.6146 72.7031 53.1562ZM86.1953 52.1328C86.1953 52.5078 86.237 52.8099 86.3203 53.0391C86.4036 53.2682 86.5495 53.4479 86.7578 53.5781C86.763 53.6042 86.7656 53.6536 86.7656 53.7266V53.8672C86.7656 54.5859 86.5573 55.1458 86.1406 55.5469C85.7292 55.9427 85.1953 56.1406 84.5391 56.1406C83.888 56.1406 83.3594 55.9557 82.9531 55.5859C82.4792 55.1641 82.2422 54.5234 82.2422 53.6641C82.2422 53.2995 82.2578 52.9792 82.2891 52.7031C82.3255 52.4219 82.349 52.2214 82.3594 52.1016C82.375 51.9818 82.3906 51.8698 82.4062 51.7656C82.4219 51.6615 82.4297 51.5078 82.4297 51.3047C82.4297 51.1016 82.401 50.9557 82.3438 50.8672C82.2917 50.7786 82.2161 50.7344 82.1172 50.7344C82.0234 50.7344 81.9401 50.7552 81.8672 50.7969L81.9688 52.0703C81.875 52.5964 81.8281 53.1536 81.8281 53.7422C81.8281 54.3307 81.9609 54.8672 82.2266 55.3516C81.7161 55.8776 81 56.1406 80.0781 56.1406C79.5521 56.1406 79.0964 56.0026 78.7109 55.7266C78.263 55.4141 78.0391 55 78.0391 54.4844V45.3672C78.2891 45.2214 78.5885 45.1016 78.9375 45.0078C79.2917 44.9141 79.6484 44.8672 80.0078 44.8672C80.6068 44.8672 81.1016 44.9844 81.4922 45.2188C81.9349 45.4948 82.1562 45.8906 82.1562 46.4062V47.1484C81.7031 47.1745 81.2682 47.3047 80.8516 47.5391C80.4922 47.7474 80.3125 47.9375 80.3125 48.1094C80.3125 48.1667 80.3333 48.2188 80.375 48.2656C80.4167 48.3073 80.4661 48.3333 80.5234 48.3438C80.7422 48.0885 81.0495 47.875 81.4453 47.7031C81.8464 47.5312 82.3203 47.4453 82.8672 47.4453C83.4141 47.4453 83.9062 47.5286 84.3438 47.6953C84.8958 47.9036 85.3307 48.2214 85.6484 48.6484C86.0286 49.1693 86.2188 49.8229 86.2188 50.6094L86.1953 52.1328ZM91.0625 51.6484V53.0156C91.099 53.0521 91.1589 53.0703 91.2422 53.0703C91.3255 53.0703 91.3854 53.0417 91.4219 52.9844C91.4583 52.9271 91.4766 52.8281 91.4766 52.6875V51.5703C91.4766 51.0703 91.4557 50.7396 91.4141 50.5781C91.3724 50.4115 91.2943 50.3281 91.1797 50.3281C91.1068 50.3281 91.0443 50.3542 90.9922 50.4062C91.0391 50.9219 91.0625 51.3359 91.0625 51.6484ZM88.1406 55.1094C87.2865 54.2865 86.8594 53.1719 86.8594 51.7656C86.8594 50.3542 87.2604 49.2422 88.0625 48.4297C88.8698 47.612 89.9271 47.2031 91.2344 47.2031C92.5417 47.2031 93.599 47.6276 94.4062 48.4766C95.2083 49.3255 95.6094 50.4323 95.6094 51.7969C95.6094 53.1562 95.2214 54.237 94.4453 55.0391C93.6745 55.8411 92.625 56.2422 91.2969 56.2422C89.9688 56.2422 88.9167 55.8646 88.1406 55.1094ZM100.234 51.7812V52.8281C100.271 52.8646 100.331 52.8828 100.414 52.8828C100.497 52.8828 100.557 52.8542 100.594 52.7969C100.63 52.7396 100.648 52.6406 100.648 52.5V51.7031C100.648 51.2031 100.628 50.8724 100.586 50.7109C100.544 50.5443 100.466 50.4609 100.352 50.4609C100.279 50.4609 100.216 50.487 100.164 50.5391C100.211 51.0547 100.234 51.4688 100.234 51.7812ZM97.7422 48.4141C97.7422 48.5703 97.8333 48.6484 98.0156 48.6484C98.3281 48.1589 98.6953 47.7969 99.1172 47.5625C99.5391 47.3229 100.047 47.2031 100.641 47.2031C101.234 47.2031 101.776 47.2969 102.266 47.4844C102.938 47.75 103.469 48.1771 103.859 48.7656C104.349 49.5104 104.594 50.487 104.594 51.6953C104.594 53.0547 104.229 54.112 103.5 54.8672C102.776 55.6172 101.771 55.9922 100.484 55.9922C99.7656 55.9922 99.2057 55.9036 98.8047 55.7266C98.7682 55.7474 98.75 55.7917 98.75 55.8594C98.75 56.0156 98.8698 56.1276 99.1094 56.1953C99.3542 56.263 99.7734 56.3125 100.367 56.3438V58.4219C99.8307 58.6615 99.2422 58.7812 98.6016 58.7812C97.8464 58.7812 97.276 58.6432 96.8906 58.3672C96.4531 58.0703 96.2344 57.6146 96.2344 57V50.7109C95.9271 50.2786 95.7734 49.7422 95.7734 49.1016C95.7734 48.8411 95.8151 48.5573 95.8984 48.25C95.9818 47.9427 96.0938 47.6797 96.2344 47.4609H97.3438C97.7969 47.4609 98.1432 47.5234 98.3828 47.6484C97.9557 47.9661 97.7422 48.2214 97.7422 48.4141Z" fill="white"/>
</svg>
